<?xml version="1.0" encoding="UTF-8" standalone="no"?>
<!-- Created with Inkscape (http://www.inkscape.org/) -->

<svg
   width="210mm"
   height="297mm"
   viewBox="0 0 210 297"
   version="1.1"
   id="svg622"
   xml:space="preserve"
   xmlns="http://www.w3.org/2000/svg"
   xmlns:svg="http://www.w3.org/2000/svg"><defs
     id="defs619"><linearGradient
       id="paint0_linear_128_284"
       x1="-106.255"
       y1="431.973"
       x2="141.281"
       y2="113.916"
       gradientUnits="userSpaceOnUse"><stop
         stop-color="#005AE2"
         id="stop641" /><stop
         offset="1"
         stop-color="#73E6FF"
         stop-opacity="0.38"
         id="stop643" /></linearGradient><linearGradient
       id="paint0_linear_124_673"
       x1="414.67"
       y1="-82.5462"
       x2="238.043"
       y2="250.014"
       gradientUnits="userSpaceOnUse"
       gradientTransform="translate(-267.2666,-36.348257)"><stop
         stop-color="#9EE6F7"
         stop-opacity="0"
         id="stop673" /><stop
         offset="1"
         stop-color="#9EE6F7"
         stop-opacity="0.46"
         id="stop675" /></linearGradient><linearGradient
       id="paint0_linear_128_283"
       x1="-33.2834"
       y1="475.343"
       x2="119.695"
       y2="50.9411"
       gradientUnits="userSpaceOnUse"><stop
         stop-color="#9EE6F7"
         stop-opacity="0"
         id="stop705" /><stop
         offset="1"
         stop-color="#9EE6F7"
         stop-opacity="0.46"
         id="stop707" /></linearGradient><linearGradient
       id="paint0_linear_128_282"
       x1="-22.6874"
       y1="577.041"
       x2="222.351"
       y2="144.829"
       gradientUnits="userSpaceOnUse"><stop
         stop-color="#9EE6F7"
         stop-opacity="0"
         id="stop763" /><stop
         offset="1"
         stop-color="#9EE6F7"
         stop-opacity="0.46"
         id="stop765" /></linearGradient><linearGradient
       id="paint0_linear_128_283-9"
       x1="-33.2834"
       y1="475.343"
       x2="119.695"
       y2="50.9411"
       gradientUnits="userSpaceOnUse"><stop
         stop-color="#9EE6F7"
         stop-opacity="0"
         id="stop795" /><stop
         offset="1"
         stop-color="#9EE6F7"
         stop-opacity="0.46"
         id="stop797" /></linearGradient><linearGradient
       id="paint0_linear_128_282-1"
       x1="-22.6874"
       y1="577.041"
       x2="222.351"
       y2="144.829"
       gradientUnits="userSpaceOnUse"
       gradientTransform="translate(141.11676,-329.27245)"><stop
         stop-color="#9EE6F7"
         stop-opacity="0"
         id="stop827" /><stop
         offset="1"
         stop-color="#9EE6F7"
         stop-opacity="0.46"
         id="stop829" /></linearGradient><linearGradient
       id="paint0_linear_124_674"
       x1="516.586"
       y1="-77.2588"
       x2="255.452"
       y2="208.884"
       gradientUnits="userSpaceOnUse"><stop
         stop-color="#005AE2"
         id="stop889" /><stop
         offset="1"
         stop-color="#73E6FF"
         stop-opacity="0.38"
         id="stop891" /></linearGradient><linearGradient
       id="paint0_linear_124_673-8"
       x1="414.67"
       y1="-82.5462"
       x2="238.043"
       y2="250.014"
       gradientUnits="userSpaceOnUse"
       gradientTransform="translate(-91.939709,271.54286)"><stop
         stop-color="#9EE6F7"
         stop-opacity="0"
         id="stop921" /><stop
         offset="1"
         stop-color="#9EE6F7"
         stop-opacity="0.46"
         id="stop923" /></linearGradient><linearGradient
       id="paint0_linear_124_672"
       x1="396.928"
       y1="-77.6338"
       x2="140.688"
       y2="285.345"
       gradientUnits="userSpaceOnUse"><stop
         stop-color="#9EE6F7"
         stop-opacity="0"
         id="stop953" /><stop
         offset="1"
         stop-color="#9EE6F7"
         stop-opacity="0.46"
         id="stop955" /></linearGradient></defs><g
     id="layer1"><g
       style="fill:none"
       id="g842"
       transform="matrix(0.26458333,0,0,0.26458333,-14.800968,84.340439)" /><g
       style="fill:none"
       id="g904"
       transform="matrix(0.26458333,0,0,0.26458333,38.301571,166.15401)"><path
         fillRule="evenodd"
         clipRule="evenodd"
         d="M 167.5,93.0639 C 123.721,69.6206 11.8413,73.3034 -8.00006,35.88 -26.4387,1.10235 85.3641,9.05233 95.0001,-27.6575 104.243,-62.8673 80.953,-62.5497 107,-92.69 c 33.382,-38.626 74.646,3.3535 136,0 63.114,-3.4501 57.736,-86.301 113.14,-72.766 61.562,15.039 -25.759,99.1089 0,123.9698 32.051,30.9341 175.185,-0.5267 168.067,38.23664 C 517.098,35.4605 443.239,42.9825 411.333,73.9319 372.062,112.023 379.01,180.15 318.434,196.348 259.769,212.034 218.149,120.188 167.5,93.0639 Z"
         fill="url(#paint0_linear_124_674)"
         fill-opacity="0.6"
         id="path887"
         style="fill:url(#paint0_linear_124_674)" /></g><g
       style="fill:none"
       id="g936"
       transform="matrix(0.26458333,0,0,0.26458333,51.838667,96.043197)"><path
         fillRule="evenodd"
         clipRule="evenodd"
         d="m 38.060291,428.51786 c -52.8137,-14.629 -116.679,-13.426 -150.500101,-47.092 -31.431,-31.287 -30.2568,-35.2348 -34.0752,-74.2565 -3.6629,-37.42756 10.2316,-72.3997 25.3927,-108.1754 19.43063,-45.8481 14.483,-113.028099 75.144401,-129.057099 62.4022,-16.488 115.5192,40.415999 174.306199,63.144999 39.078,15.111 76.8,27.768 111.957,47.5407 43.746,24.6024 110.316,40.8953 117.432,81.46929 7.106,40.51831 -64.634,63.32961 -85.408,101.12921 -25.568,46.5238 6.569,113.8238 -48.57,142.6488 -53.4,27.917 -124.574999,-60.426 -185.678999,-77.352 z"
         fill="url(#paint0_linear_124_673)"
         fill-opacity="0.4"
         id="path919"
         style="fill:url(#paint0_linear_124_673-8)" /></g><g
       style="fill:none"
       id="g968"
       transform="matrix(0.26458333,0,0,0.26458333,51.071027,176.10536)"><path
         fillRule="evenodd"
         clipRule="evenodd"
         d="M 43,192.108 C -13.417,169.4 -91.4973,207.115 -122.5,165.198 -151.311,126.244 -160.612,44.6092 -156.682,0.195022 c 3.769,-42.599922 26.801,-80.363522 51.43,-118.884022 31.5635,-49.365 40.1611,-125.637 111.88728,-136.545 73.78402,-11.222 121.62572,59.15 183.06272,91.689 40.841,21.63 80.669,40.337 116.109,66.758 44.096,32.8754 115.661,59.078 115.119,105.6311 -0.541,46.4875 -86.18,63.7319 -117.56,103.8699 -38.621,49.403 -16.61,129.015 -84.813,154.992 C 152.499,292.865 108.273,218.379 43,192.108 Z"
         fill="url(#paint0_linear_124_672)"
         fill-opacity="0.3"
         id="path951"
         style="fill:url(#paint0_linear_124_672)" /></g></g></svg>
