<?xml version="1.0" encoding="UTF-8"?>
<!-- Created with Inkscape (http://www.inkscape.org/) -->
<svg width="210mm" height="297mm" version="1.1" viewBox="0 0 210 297" xml:space="preserve" xmlns="http://www.w3.org/2000/svg"><rect x="31.343" y="32.91" width="161.42" height="65.037" ry=".56571" opacity="0" stroke-width=".30321"/><rect x="20.373" y="16.455" width="171.6" height="86.194" ry=".56571" opacity="0" stroke-width=".26458"/><g transform="matrix(.26458 0 0 .26458 31.648 138.28)" fill="none"><path d="m86.677 41.111c48.551-104.29 87.73 18.474 111.95 65.91 34.42 67.427 119.68 127.58-82.652 147.99-202.33 20.411-89.982-83.544-29.294-213.9z" fill="#e2e9f0"/></g><rect x="62.432" y="141.83" width="144.96" height="58.769" ry="7.9793" fill-opacity="0" stroke-width=".28301"/><rect x="63.47" y="143.4" width="138.69" height="59.552" ry="9.0512" fill="#fff" fillRule="evenodd" stroke="#005ae2" stroke-opacity=".23196" stroke-width=".2" style="mix-blend-mode:normal"/><g transform="matrix(1.0083 0 0 .99976 44.7 -7.3837)" fill="none"><g transform="matrix(.26458 0 0 .26458 101 170.64)"><path d="m1 5c-0.55228 0-1 0.44772-1 1s0.44772 1 1 1zm40 1-10-5.7735v11.547zm-40 1h31v-2h-31z" fill="#005ae2"/></g><g transform="matrix(.26458 0 0 .26458 37.96 161.36)"><g stroke="#141414" stroke-linecap="round" stroke-linejoin="round" stroke-width="2"><path id="Vector" d="m50 23.333h10c2.1887 0 4.356 0.4311 6.3781 1.2686 2.0221 0.8376 3.8594 2.0653 5.4071 3.6129 1.5476 1.5477 2.7753 3.385 3.6128 5.4071 0.8376 2.0221 1.2687 4.1893 1.2687 6.378s-0.4311 4.356-1.2687 6.3781c-0.8375 2.0221-2.0652 3.8594-3.6128 5.4071-1.5477 1.5476-3.385 2.7753-5.4071 3.6128-2.0221 0.8376-4.1894 1.2687-6.3781 1.2687h-10m-20 0h-10c-2.1887 0-4.3559-0.4311-6.378-1.2687-2.0221-0.8375-3.8594-2.0652-5.4071-3.6128-3.1256-3.1257-4.8816-7.3649-4.8816-11.785 0-4.4202 1.756-8.6595 4.8816-11.785 3.1256-3.1256 7.3649-4.8815 11.785-4.8815h10"/><path d="m26.667 40h26.667"/></g></g><g transform="matrix(.26458 0 0 .26458 58.47 161.39)"><g stroke="#141414" stroke-linecap="round" stroke-linejoin="round" stroke-width="2"><path d="m50 23.333h10c2.1887 0 4.356 0.4311 6.3781 1.2686 2.0221 0.8376 3.8594 2.0653 5.4071 3.6129 1.5476 1.5477 2.7753 3.385 3.6128 5.4071 0.8376 2.0221 1.2687 4.1893 1.2687 6.378s-0.4311 4.356-1.2687 6.3781c-0.8375 2.0221-2.0652 3.8594-3.6128 5.4071-1.5477 1.5476-3.385 2.7753-5.4071 3.6128-2.0221 0.8376-4.1894 1.2687-6.3781 1.2687h-10m-20 0h-10c-2.1887 0-4.3559-0.4311-6.378-1.2687-2.0221-0.8375-3.8594-2.0652-5.4071-3.6128-3.1256-3.1257-4.8816-7.3649-4.8816-11.785 0-4.4202 1.756-8.6595 4.8816-11.785 3.1256-3.1256 7.3649-4.8815 11.785-4.8815h10"/><path d="m26.667 40h26.667"/></g></g><g transform="matrix(.26458 0 0 .26458 79.308 161.39)"><g stroke="#141414" stroke-linecap="round" stroke-linejoin="round" stroke-width="2"><path d="m50 23.333h10c2.1887 0 4.356 0.4311 6.3781 1.2686 2.0221 0.8376 3.8594 2.0653 5.4071 3.6129 1.5476 1.5477 2.7753 3.385 3.6128 5.4071 0.8376 2.0221 1.2687 4.1893 1.2687 6.378s-0.4311 4.356-1.2687 6.3781c-0.8375 2.0221-2.0652 3.8594-3.6128 5.4071-1.5477 1.5476-3.385 2.7753-5.4071 3.6128-2.0221 0.8376-4.1894 1.2687-6.3781 1.2687h-10m-20 0h-10c-2.1887 0-4.3559-0.4311-6.378-1.2687-2.0221-0.8375-3.8594-2.0652-5.4071-3.6128-3.1256-3.1257-4.8816-7.3649-4.8816-11.785 0-4.4202 1.756-8.6595 4.8816-11.785 3.1256-3.1256 7.3649-4.8815 11.785-4.8815h10"/><path d="m26.667 40h26.667"/></g></g><g transform="matrix(.26458 0 0 .26458 112.55 161.43)"><g stroke="#141414" stroke-linecap="round" stroke-linejoin="round" stroke-width="2"><path d="m50 23.333h10c2.1887 0 4.356 0.4311 6.3781 1.2686 2.0221 0.8376 3.8594 2.0653 5.4071 3.6129 1.5476 1.5477 2.7753 3.385 3.6128 5.4071 0.8376 2.0221 1.2687 4.1893 1.2687 6.378s-0.4311 4.356-1.2687 6.3781c-0.8375 2.0221-2.0652 3.8594-3.6128 5.4071-1.5477 1.5476-3.385 2.7753-5.4071 3.6128-2.0221 0.8376-4.1894 1.2687-6.3781 1.2687h-10m-20 0h-10c-2.1887 0-4.3559-0.4311-6.378-1.2687-2.0221-0.8375-3.8594-2.0652-5.4071-3.6128-3.1256-3.1257-4.8816-7.3649-4.8816-11.785 0-4.4202 1.756-8.6595 4.8816-11.785 3.1256-3.1256 7.3649-4.8815 11.785-4.8815h10"/><path d="m26.667 40h26.667"/></g></g></g><g stroke="#005ae2"><text x="79.925369" y="224.88806" fill="#008000" font-size="3.175px" stroke-opacity=".23196" stroke-width=".26458" style="paint-order:stroke markers fill" xml:space="preserve"><tspan stroke-width=".26458"/></text><text transform="scale(1.0314 .9696)" x="84.496933" y="187.84776" fill="#000000" font-size="3.5954px" stroke-opacity="0" stroke-width=".29962" style="paint-order:stroke markers fill" xml:space="preserve"><tspan x="84.496933" y="187.84776">Seamlessly transform your long URLs into concise </tspan><tspan x="84.496933" y="192.34204">       and shareable links with just a few clicks.</tspan></text><text x="122.70641" y="211.28737" fill="#000000" font-size="3.175px" stroke-opacity=".23196" stroke-width=".26458" style="paint-order:stroke markers fill" xml:space="preserve"><tspan x="122.70641" y="211.28737" stroke-width=".26458"/></text></g></svg>
