<?xml version="1.0" encoding="UTF-8" standalone="no"?>
<!-- Created with Inkscape (http://www.inkscape.org/) -->

<svg
   width="210mm"
   height="297mm"
   viewBox="0 0 210 297"
   version="1.1"
   id="svg622"
   xml:space="preserve"
   xmlns="http://www.w3.org/2000/svg"
   xmlns:svg="http://www.w3.org/2000/svg"><defs
     id="defs619"><linearGradient
       id="paint0_linear_128_284"
       x1="-106.255"
       y1="431.973"
       x2="141.281"
       y2="113.916"
       gradientUnits="userSpaceOnUse"><stop
         stop-color="#005AE2"
         id="stop641" /><stop
         offset="1"
         stop-color="#73E6FF"
         stop-opacity="0.38"
         id="stop643" /></linearGradient><linearGradient
       id="paint0_linear_124_673"
       x1="414.67"
       y1="-82.5462"
       x2="238.043"
       y2="250.014"
       gradientUnits="userSpaceOnUse"
       gradientTransform="translate(-267.2666,-36.348257)"><stop
         stop-color="#9EE6F7"
         stop-opacity="0"
         id="stop673" /><stop
         offset="1"
         stop-color="#9EE6F7"
         stop-opacity="0.46"
         id="stop675" /></linearGradient><linearGradient
       id="paint0_linear_128_283"
       x1="-33.2834"
       y1="475.343"
       x2="119.695"
       y2="50.9411"
       gradientUnits="userSpaceOnUse"><stop
         stop-color="#9EE6F7"
         stop-opacity="0"
         id="stop705" /><stop
         offset="1"
         stop-color="#9EE6F7"
         stop-opacity="0.46"
         id="stop707" /></linearGradient><linearGradient
       id="paint0_linear_128_282"
       x1="-22.6874"
       y1="577.041"
       x2="222.351"
       y2="144.829"
       gradientUnits="userSpaceOnUse"><stop
         stop-color="#9EE6F7"
         stop-opacity="0"
         id="stop763" /><stop
         offset="1"
         stop-color="#9EE6F7"
         stop-opacity="0.46"
         id="stop765" /></linearGradient><linearGradient
       id="paint0_linear_128_283-9"
       x1="-33.2834"
       y1="475.343"
       x2="119.695"
       y2="50.9411"
       gradientUnits="userSpaceOnUse"><stop
         stop-color="#9EE6F7"
         stop-opacity="0"
         id="stop795" /><stop
         offset="1"
         stop-color="#9EE6F7"
         stop-opacity="0.46"
         id="stop797" /></linearGradient><linearGradient
       id="paint0_linear_128_282-1"
       x1="-22.6874"
       y1="577.041"
       x2="222.351"
       y2="144.829"
       gradientUnits="userSpaceOnUse"
       gradientTransform="translate(141.11676,-329.27245)"><stop
         stop-color="#9EE6F7"
         stop-opacity="0"
         id="stop827" /><stop
         offset="1"
         stop-color="#9EE6F7"
         stop-opacity="0.46"
         id="stop829" /></linearGradient></defs><g
     id="layer1"><g
       style="fill:none"
       id="g656"
       transform="matrix(0.26458333,0,0,0.26458333,-18.936116,92.851732)"><path
         opacity="0.4"
         fillRule="evenodd"
         clipRule="evenodd"
         d="m 69.371,27.8488 c 38.994,14.2711 75.273,39.5532 102.626,79.6512 25.419,37.263 37.329,85.701 43.87,135.104 6.274,47.383 -0.179,93.09 -7.453,139.927 -9.324,60.022 0.781,145.209 -40.788,170.647 -42.761,26.168 -86.1148,-41.941 -130.1495,-66.041 -29.27179,-16.02 -57.339,-29.027 -84.2796,-51.312 -33.5219,-27.73 -82.4609,-42.982 -91.4999,-94.09 -9.026,-51.038 39.7563,-86.034 50.8243,-135.913 13.6224,-61.39 -15.8303,-144.48 20.5562,-185.7678 35.239,-39.9844 91.1797,-8.7181 136.2935,7.7946 z"
         fill="url(#paint0_linear_128_284)"
         fill-opacity="0.6"
         id="path639"
         style="fill:url(#paint0_linear_128_284)" /></g><g
       style="fill:none"
       id="g688"
       transform="matrix(0.26458333,0,0,0.26458333,26.947233,154.87749)"><g
         style="fill:none"
         id="g810"
         transform="translate(-112.14457,-222.01757)"><path
           fillRule="evenodd"
           clipRule="evenodd"
           d="M 59.7867,1.08189 C 101.896,1.16572 143.55,13.4068 179.293,43.9528 c 33.217,28.3867 55.169,73.0772 71.926,120.7252 16.074,45.701 1.357,85.923 3.708,136.065 3.013,64.259 48.391,155.326 11.884,196.43 C 229.255,539.457 171.664,486.427 122.464,478.245 89.758,472.804 58.8835,469.972 27.2275,457.325 -12.1614,441.587 -64.4639,444.176 -84.0816,395.721 -103.672,347.333 -61.8906,293.883 -61.0591,239.259 -60.0363,172.028 -106.754,98.6927 -78.7202,43.4393 -51.5701,-10.0707 11.0671,0.985015 59.7867,1.08189 Z"
           fill="url(#paint0_linear_128_283)"
           fill-opacity="0.4"
           id="path793"
           style="fill:url(#paint0_linear_128_283-9)" /></g></g><g
       style="fill:none"
       id="g720"
       transform="matrix(0.26458333,0,0,0.26458333,-15.735775,98.398199)"><path
         fillRule="evenodd"
         clipRule="evenodd"
         d="M 59.7867,1.08189 C 101.896,1.16572 143.55,13.4068 179.293,43.9528 c 33.217,28.3867 55.169,73.0772 71.926,120.7252 16.074,45.701 1.357,85.923 3.708,136.065 3.013,64.259 48.391,155.326 11.884,196.43 C 229.255,539.457 171.664,486.427 122.464,478.245 89.758,472.804 58.8835,469.972 27.2275,457.325 -12.1614,441.587 -64.4639,444.176 -84.0816,395.721 -103.672,347.333 -61.8906,293.883 -61.0591,239.259 -60.0363,172.028 -106.754,98.6927 -78.7202,43.4393 -51.5701,-10.0707 11.0671,0.985015 59.7867,1.08189 Z"
         fill="url(#paint0_linear_128_283)"
         fill-opacity="0.4"
         id="path703"
         style="fill:url(#paint0_linear_128_283)" /></g><g
       style="fill:none"
       id="g842"
       transform="matrix(0.26458333,0,0,0.26458333,-14.800968,84.340439)" /></g></svg>
