<?xml version="1.0" encoding="UTF-8" standalone="no"?>
<svg
   width="57"
   height="56"
   viewBox="0 0 57 56"
   fill="none"
   version="1.1"
   id="svg24"
   xml:space="preserve"
   xmlns="http://www.w3.org/2000/svg"
   xmlns:svg="http://www.w3.org/2000/svg"><defs
     id="defs28"><clipPath
       id="clip0_159_363"><rect
         width="24"
         height="24"
         fill="white"
         transform="translate(0.0999756)"
         id="rect180" /></clipPath><clipPath
       id="clip0_124_800"><rect
         width="24"
         height="24"
         fill="white"
         transform="translate(0.0999756)"
         id="rect349" /></clipPath></defs><circle
     id="Ellipse 2"
     cx="28.1"
     cy="28"
     r="28"
     fill="#3284FF"
     fill-opacity="0.13" /><g
     style="fill:none"
     id="g363"
     transform="translate(17.127114,14.438247)"><g
       id="link-2"
       clip-path="url(#clip0_124_800)"><path
         id="Vector"
         d="m 15.1,7 h 3 c 0.6566,0 1.3068,0.12933 1.9134,0.3806 0.6066,0.25128 1.1578,0.61957 1.6221,1.08387 0.4643,0.46429 0.8326,1.01549 1.0839,1.62213 C 22.9706,10.6932 23.1,11.3434 23.1,12 c 0,0.6566 -0.1294,1.3068 -0.3806,1.9134 -0.2513,0.6066 -0.6196,1.1578 -1.0839,1.6221 -0.4643,0.4643 -1.0155,0.8326 -1.6221,1.0839 C 19.4068,16.8707 18.7566,17 18.1,17 h -3 m -6.00002,0 h -3 C 5.44337,17 4.79319,16.8707 4.18656,16.6194 3.57993,16.3681 3.02873,15.9998 2.56444,15.5355 1.62676,14.5979 1.09998,13.3261 1.09998,12 1.09998,10.6739 1.62676,9.40215 2.56444,8.46447 3.50212,7.52678 4.77389,7 6.09998,7 h 3"
         stroke="#141414"
         stroke-width="2"
         stroke-linecap="round"
         stroke-linejoin="round" /><path
         id="Vector_2"
         d="M 8.09998,12 H 16.1"
         stroke="#005ae2"
         stroke-width="2"
         stroke-linecap="round"
         stroke-linejoin="round" /></g></g></svg>
