<?xml version="1.0" encoding="UTF-8" standalone="no"?>
<!-- Created with Inkscape (http://www.inkscape.org/) -->

<svg
   width="210mm"
   height="297mm"
   viewBox="0 0 210 297"
   version="1.1"
   id="svg4735"
   xml:space="preserve"
   xmlns="http://www.w3.org/2000/svg"
   xmlns:svg="http://www.w3.org/2000/svg"><defs
     id="defs4732"><linearGradient
       id="paint0_linear_128_284"
       x1="-106.255"
       y1="431.973"
       x2="141.281"
       y2="113.916"
       gradientUnits="userSpaceOnUse"><stop
         stop-color="#005AE2"
         id="stop641" /><stop
         offset="1"
         stop-color="#73E6FF"
         stop-opacity="0.38"
         id="stop643" /></linearGradient><linearGradient
       id="paint0_linear_124_673"
       x1="414.67"
       y1="-82.5462"
       x2="238.043"
       y2="250.014"
       gradientUnits="userSpaceOnUse"
       gradientTransform="translate(-267.2666,-36.348257)"><stop
         stop-color="#9EE6F7"
         stop-opacity="0"
         id="stop673" /><stop
         offset="1"
         stop-color="#9EE6F7"
         stop-opacity="0.46"
         id="stop675" /></linearGradient><linearGradient
       id="paint0_linear_128_283"
       x1="-33.2834"
       y1="475.343"
       x2="119.695"
       y2="50.9411"
       gradientUnits="userSpaceOnUse"><stop
         stop-color="#9EE6F7"
         stop-opacity="0"
         id="stop705" /><stop
         offset="1"
         stop-color="#9EE6F7"
         stop-opacity="0.46"
         id="stop707" /></linearGradient><linearGradient
       id="paint0_linear_128_282"
       x1="-22.6874"
       y1="577.041"
       x2="222.351"
       y2="144.829"
       gradientUnits="userSpaceOnUse"><stop
         stop-color="#9EE6F7"
         stop-opacity="0"
         id="stop763" /><stop
         offset="1"
         stop-color="#9EE6F7"
         stop-opacity="0.46"
         id="stop765" /></linearGradient><linearGradient
       id="paint0_linear_128_282-1"
       x1="-22.6874"
       y1="577.041"
       x2="222.351"
       y2="144.829"
       gradientUnits="userSpaceOnUse"
       gradientTransform="translate(141.11676,-329.27245)"><stop
         stop-color="#9EE6F7"
         stop-opacity="0"
         id="stop827" /><stop
         offset="1"
         stop-color="#9EE6F7"
         stop-opacity="0.46"
         id="stop829" /></linearGradient><linearGradient
       id="paint0_linear_124_674"
       x1="516.586"
       y1="-77.2588"
       x2="255.452"
       y2="208.884"
       gradientUnits="userSpaceOnUse"><stop
         stop-color="#005AE2"
         id="stop889" /><stop
         offset="1"
         stop-color="#73E6FF"
         stop-opacity="0.38"
         id="stop891" /></linearGradient><linearGradient
       id="paint0_linear_124_673-8"
       x1="414.67"
       y1="-82.5462"
       x2="238.043"
       y2="250.014"
       gradientUnits="userSpaceOnUse"
       gradientTransform="translate(-91.939709,271.54286)"><stop
         stop-color="#9EE6F7"
         stop-opacity="0"
         id="stop921" /><stop
         offset="1"
         stop-color="#9EE6F7"
         stop-opacity="0.46"
         id="stop923" /></linearGradient><linearGradient
       id="paint0_linear_124_672"
       x1="396.928"
       y1="-77.6338"
       x2="140.688"
       y2="285.345"
       gradientUnits="userSpaceOnUse"><stop
         stop-color="#9EE6F7"
         stop-opacity="0"
         id="stop953" /><stop
         offset="1"
         stop-color="#9EE6F7"
         stop-opacity="0.46"
         id="stop955" /></linearGradient></defs><g
     id="layer1"><rect
       style="fill:#0000ff;fillRule:evenodd;stroke-width:0.3032125;stroke:#005ae2;stroke-opacity:1;opacity:0;stroke-dasharray:0.07580312,0.07580312;stroke-dashoffset:0.06064255"
       id="rect5102"
       width="161.41791"
       height="65.037315"
       x="31.343285"
       y="32.910446"
       ry="0.5657143" /><rect
       style="opacity:0;fill:#000083;fillRule:evenodd;stroke:#005ae2;stroke-width:0.264583;stroke-dasharray:none;stroke-dashoffset:0.0529167;stroke-opacity:1;fill-opacity:1"
       id="rect5830"
       width="171.60448"
       height="86.194031"
       x="20.373135"
       y="16.455223"
       ry="0.5657143" /><g
       style="fill:none"
       id="g13622"
       transform="matrix(0.26458333,0,0,0.26458333,31.647739,138.27654)"><path
         d="M 86.6771,41.1106 C 135.228,-63.1746 174.407,59.5844 198.623,107.021 233.043,174.448 318.301,234.6 115.971,255.011 -86.3584,275.422 25.9891,171.467 86.6771,41.1106 Z"
         fill="#e2e9f0"
         id="path13613" /></g><rect
       style="fill:#fefefe;fillRule:evenodd;stroke-width:0.28301;fill-opacity:0"
       id="rect14827"
       width="144.96268"
       height="58.768658"
       x="62.432156"
       y="141.82835"
       ry="7.9793377" /><rect
       style="opacity:1;mix-blend-mode:normal;fill:#ffffff;fill-opacity:1;fillRule:evenodd;stroke:#005ae2;stroke-opacity:0.23195878;stroke-width:0.2;stroke-dasharray:none"
       id="rect16281"
       width="138.69403"
       height="59.552238"
       x="63.470146"
       y="143.39554"
       ry="9.0511894" /><g
       id="layer1-5"
       transform="matrix(1.0083143,0,0,0.99976029,44.700214,-7.3836791)"><g
         style="fill:none"
         id="g842"
         transform="matrix(0.26458333,0,0,0.26458333,-14.800968,84.340439)" /><g
         style="fill:none"
         id="g1092"
         transform="matrix(0.26458333,0,0,0.26458333,101.00342,170.63596)"><path
           id="Line 7"
           d="M 1,5 C 0.447715,5 0,5.44772 0,6 0,6.55228 0.447715,7 1,7 Z M 41,6 31,0.226497 V 11.7735 Z M 1,7 H 32 V 5 H 1 Z"
           fill="#005ae2" /></g><g
         style="fill:none"
         id="g1115"
         transform="matrix(0.26458333,0,0,0.26458333,37.959982,161.35725)"><g
           id="link-2"><path
             id="Vector"
             d="m 50,23.3334 h 10 c 2.1887,0 4.356,0.4311 6.3781,1.2686 2.0221,0.8376 3.8594,2.0653 5.4071,3.6129 1.5476,1.5477 2.7753,3.385 3.6128,5.4071 0.8376,2.0221 1.2687,4.1893 1.2687,6.378 0,2.1887 -0.4311,4.356 -1.2687,6.3781 -0.8375,2.0221 -2.0652,3.8594 -3.6128,5.4071 -1.5477,1.5476 -3.385,2.7753 -5.4071,3.6128 C 64.356,56.2356 62.1887,56.6667 60,56.6667 H 50 m -20,0 H 20 c -2.1887,0 -4.3559,-0.4311 -6.378,-1.2687 C 11.5999,54.5605 9.76257,53.3328 8.21493,51.7852 5.08932,48.6595 3.33337,44.4203 3.33337,40 c 0,-4.4202 1.75595,-8.6595 4.88156,-11.7851 C 11.3405,25.0893 15.5798,23.3334 20,23.3334 h 10"
             stroke="#141414"
             stroke-width="2"
             stroke-linecap="round"
             stroke-linejoin="round" /><path
             id="Vector_2"
             d="M 26.6666,40 H 53.3333"
             stroke="#141414"
             stroke-width="2"
             stroke-linecap="round"
             stroke-linejoin="round" /></g></g><g
         style="fill:none"
         id="g1138"
         transform="matrix(0.26458333,0,0,0.26458333,58.470348,161.3938)"><g
           id="link-2-9"><path
             id="Vector-5"
             d="m 50,23.3334 h 10 c 2.1887,0 4.356,0.4311 6.3781,1.2686 2.0221,0.8376 3.8594,2.0653 5.4071,3.6129 1.5476,1.5477 2.7753,3.385 3.6128,5.4071 0.8376,2.0221 1.2687,4.1893 1.2687,6.378 0,2.1887 -0.4311,4.356 -1.2687,6.3781 -0.8375,2.0221 -2.0652,3.8594 -3.6128,5.4071 -1.5477,1.5476 -3.385,2.7753 -5.4071,3.6128 C 64.356,56.2356 62.1887,56.6667 60,56.6667 H 50 m -20,0 H 20 c -2.1887,0 -4.3559,-0.4311 -6.378,-1.2687 C 11.5999,54.5605 9.76257,53.3328 8.21493,51.7852 5.08932,48.6595 3.33337,44.4203 3.33337,40 c 0,-4.4202 1.75595,-8.6595 4.88156,-11.7851 C 11.3405,25.0893 15.5798,23.3334 20,23.3334 h 10"
             stroke="#141414"
             stroke-width="2"
             stroke-linecap="round"
             stroke-linejoin="round" /><path
             id="Vector_2-5"
             d="M 26.6666,40 H 53.3333"
             stroke="#141414"
             stroke-width="2"
             stroke-linecap="round"
             stroke-linejoin="round" /></g></g><g
         style="fill:none"
         id="g1161"
         transform="matrix(0.26458333,0,0,0.26458333,79.308102,161.3938)"><g
           id="link-2-4"><path
             id="Vector-6"
             d="m 50,23.3334 h 10 c 2.1887,0 4.356,0.4311 6.3781,1.2686 2.0221,0.8376 3.8594,2.0653 5.4071,3.6129 1.5476,1.5477 2.7753,3.385 3.6128,5.4071 0.8376,2.0221 1.2687,4.1893 1.2687,6.378 0,2.1887 -0.4311,4.356 -1.2687,6.3781 -0.8375,2.0221 -2.0652,3.8594 -3.6128,5.4071 -1.5477,1.5476 -3.385,2.7753 -5.4071,3.6128 C 64.356,56.2356 62.1887,56.6667 60,56.6667 H 50 m -20,0 H 20 c -2.1887,0 -4.3559,-0.4311 -6.378,-1.2687 C 11.5999,54.5605 9.76257,53.3328 8.21493,51.7852 5.08932,48.6595 3.33337,44.4203 3.33337,40 c 0,-4.4202 1.75595,-8.6595 4.88156,-11.7851 C 11.3405,25.0893 15.5798,23.3334 20,23.3334 h 10"
             stroke="#141414"
             stroke-width="2"
             stroke-linecap="round"
             stroke-linejoin="round" /><path
             id="Vector_2-9"
             d="M 26.6666,40 H 53.3333"
             stroke="#141414"
             stroke-width="2"
             stroke-linecap="round"
             stroke-linejoin="round" /></g></g><g
         style="fill:none"
         id="g1184"
         transform="matrix(0.26458333,0,0,0.26458333,112.54557,161.43034)"><g
           id="link-2-46"><path
             id="Vector-64"
             d="m 50,23.3334 h 10 c 2.1887,0 4.356,0.4311 6.3781,1.2686 2.0221,0.8376 3.8594,2.0653 5.4071,3.6129 1.5476,1.5477 2.7753,3.385 3.6128,5.4071 0.8376,2.0221 1.2687,4.1893 1.2687,6.378 0,2.1887 -0.4311,4.356 -1.2687,6.3781 -0.8375,2.0221 -2.0652,3.8594 -3.6128,5.4071 -1.5477,1.5476 -3.385,2.7753 -5.4071,3.6128 C 64.356,56.2356 62.1887,56.6667 60,56.6667 H 50 m -20,0 H 20 c -2.1887,0 -4.3559,-0.4311 -6.378,-1.2687 C 11.5999,54.5605 9.76257,53.3328 8.21493,51.7852 5.08932,48.6595 3.33337,44.4203 3.33337,40 c 0,-4.4202 1.75595,-8.6595 4.88156,-11.7851 C 11.3405,25.0893 15.5798,23.3334 20,23.3334 h 10"
             stroke="#141414"
             stroke-width="2"
             stroke-linecap="round"
             stroke-linejoin="round" /><path
             id="Vector_2-94"
             d="M 26.6666,40 H 53.3333"
             stroke="#141414"
             stroke-width="2"
             stroke-linecap="round"
             stroke-linejoin="round" /></g></g></g><text
       xml:space="preserve"
       style="font-size:3.175px;opacity:1;fill:#008000;fill-opacity:1;stroke:#005ae2;stroke-width:0.264583;stroke-opacity:0.231959;paint-order:stroke markers fill"
       x="79.925369"
       y="224.88806"
       id="text21442"><tspan
         id="tspan21440"
         style="stroke-width:0.264583"></tspan></text><text
       xml:space="preserve"
       style="font-size:3.59542px;opacity:1;fill:#000000;fill-opacity:1;stroke:#005ae2;stroke-width:0.299618;stroke-opacity:0;paint-order:stroke markers fill"
       x="84.496933"
       y="187.84776"
       id="text22386"
       transform="scale(1.0313552,0.96959807)"><tspan
         id="tspan22384"
         style="fill:#000000;stroke-width:0.299618;stroke:#005ae2;stroke-opacity:0"
         x="84.496933"
         y="187.84776">Seamlessly transform your long URLs into concise </tspan><tspan
         style="fill:#000000;stroke-width:0.299618;stroke:#005ae2;stroke-opacity:0"
         x="84.496933"
         y="192.34204"
         id="tspan22490">       and shareable links with just a few clicks.</tspan></text><text
       xml:space="preserve"
       style="font-size:3.175px;opacity:1;fill:#000000;fill-opacity:1;stroke:#005ae2;stroke-width:0.264583;stroke-opacity:0.231959;paint-order:stroke markers fill"
       x="122.70641"
       y="211.28737"
       id="text22494"><tspan
         id="tspan22492"
         style="stroke-width:0.264583"
         x="122.70641"
         y="211.28737" /></text></g></svg>
