<?xml version="1.0" encoding="UTF-8" standalone="no"?>
<!-- Created with Inkscape (http://www.inkscape.org/) -->

<svg
   width="210mm"
   height="297mm"
   viewBox="0 0 210 297"
   version="1.1"
   id="svg5"
   xml:space="preserve"
   inkscape:version="1.2 (dc2aedaf03, 2022-05-15)"
   sodipodi:docname="logo-blue.svg"
   xmlns:inkscape="http://www.inkscape.org/namespaces/inkscape"
   xmlns:sodipodi="http://sodipodi.sourceforge.net/DTD/sodipodi-0.dtd"
   xmlns="http://www.w3.org/2000/svg"
   xmlns:svg="http://www.w3.org/2000/svg"><sodipodi:namedview
     id="namedview7"
     pagecolor="#ffffff"
     bordercolor="#000000"
     borderopacity="0.25"
     inkscape:showpageshadow="2"
     inkscape:pageopacity="0.0"
     inkscape:pagecheckerboard="0"
     inkscape:deskcolor="#d1d1d1"
     inkscape:document-units="mm"
     showgrid="false"
     inkscape:zoom="1.3228492"
     inkscape:cx="404.43008"
     inkscape:cy="627.43358"
     inkscape:window-width="1366"
     inkscape:window-height="705"
     inkscape:window-x="-8"
     inkscape:window-y="-8"
     inkscape:window-maximized="1"
     inkscape:current-layer="layer1" /><defs
     id="defs2" /><g
     inkscape:label="Layer 1"
     inkscape:groupmode="layer"
     id="layer1"><g
       style="fill:none"
       id="g24"
       transform="matrix(0.18124561,0,0,0.19791326,15.215146,168.23643)"><path
         id="Vector"
         d="m 23.6471,0.439381 c -0.5858,-0.585841 -1.5439,-0.585841 -2.1298,0 L 18.4643,3.49483 C 17.2134,2.66275 15.7779,2.24971 14.3365,2.24971 c -1.9191,0 -3.8628,0.73248 -5.30283,2.1972 L 4.53365,8.94716 C 1.96732,11.5106 1.65099,15.4747 3.57868,18.384 l -3.052811,3.0554 c -0.5858429,0.5859 -0.5858429,1.5351 0,2.1212 C 0.81891,23.8536 1.20267,24 1.58643,24 1.97044,24 2.35396,23.8536 2.647,23.5606 l 3.05281,-3.0555 c 1.25113,0.8321 2.69522,1.2451 4.13667,1.2451 1.89412,0 3.83782,-0.7324 5.30282,-2.1972 l 4.4914,-4.5 c 2.5663,-2.5637 2.8826,-6.52776 0.9547,-9.43705 l 3.0617,-3.05544 c 0.5858,-0.58585 0.5858,-1.53529 0,-2.121129 z M 18.8276,9.74996 c 0,1.20124 -0.4687,2.33204 -1.318,3.18174 l -4.4914,4.5 C 12.1657,18.2813 11.013,18.75 9.83648,18.75 9.15679,18.75 8.50639,18.5832 7.90879,18.2988 l 2.21351,-2.2383 c 0.5859,-0.5858 0.5859,-1.535 0,-2.1211 -0.56111,-0.5858 -1.51031,-0.5858 -2.09615,0 L 5.7879,16.1777 C 5.50085,15.5829 5.33669,14.9325 5.33669,14.25 c 0,-1.2012 0.46873,-2.3321 1.31833,-3.1817 L 11.1301,6.56828 c 0.8496,-0.84961 2.0052,-1.31833 3.2064,-1.31833 0.6797,0 1.327,0.1668 1.9248,0.4512 L 13.9791,7.9862 c -0.5858,0.58584 -0.5858,1.53504 0,2.1211 0.2931,0.2931 0.6766,0.4395 1.0606,0.4395 0.3809,0 0.7646,-0.1464 1.0574,-0.4395 l 2.2796,-2.28502 c 0.2868,0.59448 0.4509,1.24512 0.4509,1.92768 z"
         fill="#0065fe" /></g><g
       style="fill:none"
       id="g41"
       transform="matrix(0.26458333,0,0,0.17996363,20.680509,168.22871)"><path
         id="Vector 2"
         d="M 1.08649,1 V 25"
         stroke="#0065fe"
         stroke-width="2"
         stroke-linecap="round" /></g></g></svg>
